<?xml version="1.0" encoding="UTF-8" standalone="no"?>
<!DOCTYPE svg PUBLIC "-//W3C//DTD SVG 1.1//EN"
 "http://www.w3.org/Graphics/SVG/1.1/DTD/svg11.dtd">
<!-- Generated by graphviz version 2.38.0 (20140413.2041)
 -->
<!-- Title: Model Pages: 1 -->
<svg width="253pt" height="506pt"
 viewBox="0.00 0.00 252.50 506.00" xmlns="http://www.w3.org/2000/svg" xmlns:xlink="http://www.w3.org/1999/xlink">
<g id="graph0" class="graph" transform="scale(1 1) rotate(0) translate(4 502)">
<title>Model</title>
<polygon fill="white" stroke="none" points="-4,4 -4,-502 248.5,-502 248.5,4 -4,4"/>
<!-- node0 -->
<g id="node1" class="node"><title>node0</title>
<path fill="none" stroke="none" d="M42,-498C42,-498 12,-498 12,-498 6,-498 0,-492 0,-486 0,-486 0,-474 0,-474 0,-468 6,-462 12,-462 12,-462 42,-462 42,-462 48,-462 54,-468 54,-474 54,-474 54,-486 54,-486 54,-492 48,-498 42,-498"/>
<text text-anchor="middle" x="27" y="-477.8" font-family="Times,serif" font-size="9.00">vVector6</text>
</g>
<!-- node1 -->
<g id="node2" class="node"><title>node1</title>
<path fill="#000000" stroke="black" d="M98,-417C98,-417 54,-417 54,-417 48,-417 42,-411 42,-405 42,-405 42,-393 42,-393 42,-387 48,-381 54,-381 54,-381 98,-381 98,-381 104,-381 110,-387 110,-393 110,-393 110,-405 110,-405 110,-411 104,-417 98,-417"/>
<text text-anchor="middle" x="76" y="-397.1" font-family="Times,serif" font-size="8.00" fill="#ffffff">VectorGaussian</text>
</g>
<!-- node0&#45;&gt;node1 -->
<g id="edge1" class="edge"><title>node0&#45;&gt;node1</title>
<path fill="none" stroke="black" d="M37.6323,-461.858C44.1817,-451.299 52.7027,-437.561 60.0504,-425.715"/>
<polygon fill="black" stroke="black" points="63.0918,-427.451 65.3885,-417.108 57.1432,-423.762 63.0918,-427.451"/>
<text text-anchor="middle" x="62" y="-437.6" font-family="Times,serif" font-size="8.00" fill="#d3d3d3">mean</text>
</g>
<!-- node3 -->
<g id="node4" class="node"><title>node3</title>
<path fill="none" stroke="black" d="M91,-344C91,-344 61,-344 61,-344 55,-344 49,-338 49,-332 49,-332 49,-320 49,-320 49,-314 55,-308 61,-308 61,-308 91,-308 91,-308 97,-308 103,-314 103,-320 103,-320 103,-332 103,-332 103,-338 97,-344 91,-344"/>
<text text-anchor="middle" x="76" y="-323.5" font-family="Times,serif" font-size="10.00" fill="#0000ff">w</text>
</g>
<!-- node1&#45;&gt;node3 -->
<g id="edge3" class="edge"><title>node1&#45;&gt;node3</title>
<path fill="none" stroke="black" d="M76,-380.813C76,-372.789 76,-363.047 76,-354.069"/>
<polygon fill="black" stroke="black" points="79.5001,-354.029 76,-344.029 72.5001,-354.029 79.5001,-354.029"/>
</g>
<!-- node2 -->
<g id="node3" class="node"><title>node2</title>
<path fill="none" stroke="none" d="M167.5,-498C167.5,-498 84.5,-498 84.5,-498 78.5,-498 72.5,-492 72.5,-486 72.5,-486 72.5,-474 72.5,-474 72.5,-468 78.5,-462 84.5,-462 84.5,-462 167.5,-462 167.5,-462 173.5,-462 179.5,-468 179.5,-474 179.5,-474 179.5,-486 179.5,-486 179.5,-492 173.5,-498 167.5,-498"/>
<text text-anchor="middle" x="126" y="-477.8" font-family="Times,serif" font-size="9.00">vPositiveDefiniteMatrix0</text>
</g>
<!-- node2&#45;&gt;node1 -->
<g id="edge2" class="edge"><title>node2&#45;&gt;node1</title>
<path fill="none" stroke="black" d="M115.151,-461.858C108.468,-451.299 99.7728,-437.561 92.2751,-425.715"/>
<polygon fill="black" stroke="black" points="95.1335,-423.686 86.8281,-417.108 89.2187,-427.43 95.1335,-423.686"/>
<text text-anchor="middle" x="118" y="-437.6" font-family="Times,serif" font-size="8.00" fill="#d3d3d3">precision</text>
</g>
<!-- node5 -->
<g id="node6" class="node"><title>node5</title>
<path fill="#000000" stroke="black" d="M140.5,-263C140.5,-263 105.5,-263 105.5,-263 99.5,-263 93.5,-257 93.5,-251 93.5,-251 93.5,-239 93.5,-239 93.5,-233 99.5,-227 105.5,-227 105.5,-227 140.5,-227 140.5,-227 146.5,-227 152.5,-233 152.5,-239 152.5,-239 152.5,-251 152.5,-251 152.5,-257 146.5,-263 140.5,-263"/>
<text text-anchor="middle" x="123" y="-243.1" font-family="Times,serif" font-size="8.00" fill="#ffffff">InnerProduct</text>
</g>
<!-- node3&#45;&gt;node5 -->
<g id="edge5" class="edge"><title>node3&#45;&gt;node5</title>
<path fill="none" stroke="black" d="M86.1983,-307.858C92.4804,-297.299 100.654,-283.561 107.701,-271.715"/>
<polygon fill="black" stroke="black" points="110.717,-273.492 112.822,-263.108 104.701,-269.913 110.717,-273.492"/>
<text text-anchor="middle" x="103" y="-283.6" font-family="Times,serif" font-size="8.00" fill="#d3d3d3">b</text>
</g>
<!-- node4 -->
<g id="node5" class="node"><title>node4</title>
<path fill="none" stroke="none" d="M163,-344C163,-344 133,-344 133,-344 127,-344 121,-338 121,-332 121,-332 121,-320 121,-320 121,-314 127,-308 133,-308 133,-308 163,-308 163,-308 169,-308 175,-314 175,-320 175,-320 175,-332 175,-332 175,-338 169,-344 163,-344"/>
<text text-anchor="middle" x="148" y="-323.8" font-family="Times,serif" font-size="9.00">x[index1]</text>
</g>
<!-- node4&#45;&gt;node5 -->
<g id="edge4" class="edge"><title>node4&#45;&gt;node5</title>
<path fill="none" stroke="black" d="M142.575,-307.858C139.332,-297.609 135.141,-284.366 131.47,-272.765"/>
<polygon fill="black" stroke="black" points="134.768,-271.586 128.414,-263.108 128.094,-273.698 134.768,-271.586"/>
<text text-anchor="middle" x="138" y="-283.6" font-family="Times,serif" font-size="8.00" fill="#d3d3d3">a</text>
</g>
<!-- node6 -->
<g id="node7" class="node"><title>node6</title>
<path fill="none" stroke="black" d="M159,-190C159,-190 87,-190 87,-190 81,-190 75,-184 75,-178 75,-178 75,-166 75,-166 75,-160 81,-154 87,-154 87,-154 159,-154 159,-154 165,-154 171,-160 171,-166 171,-166 171,-178 171,-178 171,-184 165,-190 159,-190"/>
<text text-anchor="middle" x="123" y="-169.5" font-family="Times,serif" font-size="10.00" fill="#0000ff">vdouble[]4[index1]</text>
</g>
<!-- node5&#45;&gt;node6 -->
<g id="edge6" class="edge"><title>node5&#45;&gt;node6</title>
<path fill="none" stroke="black" d="M123,-226.813C123,-218.789 123,-209.047 123,-200.069"/>
<polygon fill="black" stroke="black" points="126.5,-200.029 123,-190.029 119.5,-200.029 126.5,-200.029"/>
</g>
<!-- node7 -->
<g id="node8" class="node"><title>node7</title>
<path fill="#000000" stroke="black" d="M232.5,-109C232.5,-109 131.5,-109 131.5,-109 125.5,-109 119.5,-103 119.5,-97 119.5,-97 119.5,-85 119.5,-85 119.5,-79 125.5,-73 131.5,-73 131.5,-73 232.5,-73 232.5,-73 238.5,-73 244.5,-79 244.5,-85 244.5,-85 244.5,-97 244.5,-97 244.5,-103 238.5,-109 232.5,-109"/>
<text text-anchor="middle" x="182" y="-89.1" font-family="Times,serif" font-size="8.00" fill="#ffffff">GaussianFromMeanAndVariance</text>
</g>
<!-- node6&#45;&gt;node7 -->
<g id="edge7" class="edge"><title>node6&#45;&gt;node7</title>
<path fill="none" stroke="black" d="M135.802,-153.858C143.766,-143.195 154.15,-129.291 163.055,-117.367"/>
<polygon fill="black" stroke="black" points="166.043,-119.215 169.223,-109.108 160.435,-115.026 166.043,-119.215"/>
<text text-anchor="middle" x="163" y="-129.6" font-family="Times,serif" font-size="8.00" fill="#d3d3d3">mean</text>
</g>
<!-- node9 -->
<g id="node10" class="node"><title>node9</title>
<path fill="none" stroke="none" d="M218,-36C218,-36 146,-36 146,-36 140,-36 134,-30 134,-24 134,-24 134,-12 134,-12 134,-6 140,-0 146,-0 146,-0 218,-0 218,-0 224,-0 230,-6 230,-12 230,-12 230,-24 230,-24 230,-30 224,-36 218,-36"/>
<text text-anchor="middle" x="182" y="-15.5" font-family="Times,serif" font-size="10.00" fill="#0000ff">vdouble[]3[index1]</text>
</g>
<!-- node7&#45;&gt;node9 -->
<g id="edge9" class="edge"><title>node7&#45;&gt;node9</title>
<path fill="none" stroke="black" d="M182,-72.8129C182,-64.7895 182,-55.0475 182,-46.0691"/>
<polygon fill="black" stroke="black" points="185.5,-46.0288 182,-36.0288 178.5,-46.0289 185.5,-46.0288"/>
</g>
<!-- node8 -->
<g id="node9" class="node"><title>node8</title>
<path fill="none" stroke="none" d="M231,-190C231,-190 201,-190 201,-190 195,-190 189,-184 189,-178 189,-178 189,-166 189,-166 189,-160 195,-154 201,-154 201,-154 231,-154 231,-154 237,-154 243,-160 243,-166 243,-166 243,-178 243,-178 243,-184 237,-190 231,-190"/>
<text text-anchor="middle" x="216" y="-169.8" font-family="Times,serif" font-size="9.00">1</text>
</g>
<!-- node8&#45;&gt;node7 -->
<g id="edge8" class="edge"><title>node8&#45;&gt;node7</title>
<path fill="none" stroke="black" d="M208.623,-153.858C204.167,-143.506 198.397,-130.099 193.368,-118.414"/>
<polygon fill="black" stroke="black" points="196.531,-116.91 189.363,-109.108 190.101,-119.677 196.531,-116.91"/>
<text text-anchor="middle" x="214" y="-129.6" font-family="Times,serif" font-size="8.00" fill="#d3d3d3">variance</text>
</g>
</g>
</svg>
